<svg width="21" height="19" viewBox="0 0 21 19" fill="none" xmlns="http://www.w3.org/2000/svg">
<path d="M10.6133 18.9297C9.96827 18.3577 9.23927 17.7627 8.46827 17.1297H8.45827C5.74327 14.9097 2.66627 12.3977 1.30727 9.38769C0.860791 8.42942 0.624178 7.38682 0.613262 6.32969C0.61028 4.87918 1.19204 3.48868 2.22708 2.47246C3.26212 1.45624 4.66306 0.900085 6.11327 0.92969C7.2939 0.931555 8.44911 1.27277 9.44127 1.91269C9.87724 2.19566 10.2717 2.53794 10.6133 2.92969C10.9568 2.53948 11.3513 2.1974 11.7863 1.91269C12.778 1.27264 13.9329 0.931409 15.1133 0.92969C16.5635 0.900085 17.9644 1.45624 18.9995 2.47246C20.0345 3.48868 20.6163 4.87918 20.6133 6.32969C20.6031 7.38851 20.3665 8.43289 19.9193 9.39269C18.5603 12.4027 15.4843 14.9137 12.7693 17.1297L12.7593 17.1377C11.9873 17.7667 11.2593 18.3617 10.6143 18.9377L10.6133 18.9297ZM6.11327 2.92969C5.18178 2.91803 4.28335 3.27453 3.61327 3.92169C2.96766 4.55586 2.60683 5.42474 2.61319 6.32969C2.6246 7.10019 2.7991 7.85954 3.12527 8.55769C3.76678 9.8564 4.63238 11.0317 5.68227 12.0297C6.67327 13.0297 7.81327 13.9977 8.79927 14.8117C9.07227 15.0367 9.35027 15.2637 9.62827 15.4907L9.80327 15.6337C10.0703 15.8517 10.3463 16.0777 10.6133 16.2997L10.6263 16.2877L10.6323 16.2827H10.6383L10.6473 16.2757H10.6523H10.6573L10.6753 16.2607L10.7163 16.2277L10.7233 16.2217L10.7343 16.2137H10.7403L10.7493 16.2057L11.4133 15.6607L11.5873 15.5177C11.8683 15.2887 12.1463 15.0617 12.4193 14.8367C13.4053 14.0227 14.5463 13.0557 15.5373 12.0507C16.5873 11.0533 17.4529 9.8782 18.0943 8.57969C18.4263 7.87549 18.6033 7.1082 18.6133 6.32969C18.6174 5.42753 18.2568 4.56198 17.6133 3.92969C16.9445 3.27961 16.0459 2.92017 15.1133 2.92969C13.9752 2.92002 12.8872 3.39706 12.1233 4.24069L10.6133 5.98069L9.10327 4.24069C8.33934 3.39706 7.25135 2.92002 6.11327 2.92969Z" fill="#C4C4C4"/>
</svg>
