<svg width="25" height="21" viewBox="0 0 25 21" fill="none" xmlns="http://www.w3.org/2000/svg">
<path d="M24.2151 3.10975C23.3244 3.50373 22.3799 3.76247 21.4128 3.87742C22.4321 3.26776 23.1951 2.30827 23.5594 1.17775C22.6028 1.74708 21.5539 2.14608 20.4608 2.36192C19.7265 1.57626 18.7532 1.05521 17.6922 0.879766C16.6312 0.704324 15.542 0.884323 14.5939 1.39178C13.6458 1.89923 12.8919 2.70571 12.4494 3.68584C12.0069 4.66597 11.9006 5.76483 12.1471 6.81158C10.2071 6.71435 8.30916 6.2102 6.5766 5.33186C4.84405 4.45352 3.31559 3.22064 2.09044 1.71325C1.65677 2.45811 1.42888 3.30485 1.4301 4.16675C1.4301 5.85842 2.2911 7.35292 3.6001 8.22792C2.82545 8.20353 2.06784 7.99433 1.39044 7.61775V7.67842C1.39067 8.80507 1.78053 9.89697 2.49393 10.769C3.20732 11.641 4.20033 12.2395 5.3046 12.4629C4.58549 12.6578 3.83146 12.6865 3.0996 12.5469C3.41095 13.5167 4.01778 14.3648 4.83513 14.9725C5.65248 15.5803 6.63942 15.9172 7.65777 15.9361C6.64566 16.731 5.48681 17.3186 4.24746 17.6653C3.00812 18.012 1.71259 18.111 0.434937 17.9568C2.66525 19.3911 5.26155 20.1526 7.91327 20.1501C16.8884 20.1501 21.7966 12.7149 21.7966 6.26675C21.7966 6.05675 21.7908 5.84442 21.7814 5.63675C22.7368 4.94628 23.5613 4.09094 24.2163 3.11092L24.2151 3.10975Z" fill="black"/>
</svg>
